<svg xmlns="http://www.w3.org/2000/svg" viewBox="0 0 512 512" role="img" aria-label="Trace It">
  <rect width="512" height="512" rx="112" fill="#14181A"/>
  <g transform="translate(256 256) scale(0.8) translate(-256 -256)">
    <g fill="none" stroke="#FFFFFF" stroke-width="20" stroke-linecap="square" stroke-linejoin="miter">
      <path d="M56 456 V56 H456 V388"/>
      <path d="M56 456 H388"/>
    </g>
    <circle cx="424" cy="424" r="14" fill="#C6F035"/>
    <g fill="none" stroke="#C6F035" stroke-width="20" stroke-linecap="square">
      <path d="M116 174 V116 H174"/>
      <path d="M338 116 H396 V174"/>
      <path d="M116 338 V396 H174"/>
      <path d="M338 396 H396 V338"/>
    </g>
    <g fill="#FFFFFF" transform="translate(2 -59) scale(1.15)">
      <path d="M199 209c-31 0-53 23-53 58v62h60v-62h-30c0-21 9-31 30-36l-7-22z"/>
      <path d="M288 209c-31 0-53 23-53 58v62h60v-62h-30c0-21 9-31 30-36l-7-22z"/>
    </g>
  </g>
</svg>
